<?xml version="1.0" encoding="UTF-8"?>
<svg id="Calque_2" data-name="Calque 2" xmlns="http://www.w3.org/2000/svg" viewBox="0 0 244.8 262.97">
  <g id="Calque_1-2" data-name="Calque 1">
    <path id="Fond" d="m53.32.51h131.23s42.89-3.06,57.19,86.3c1.53,96.51,2.55,144.51,2.55,144.51,0,0-5.62,31.15-45.45,31.15H41.07S1.24,258.38.73,225.19s0-126.13,0-126.13C.73,99.07-.8,18.9,53.32.51Z" style="fill: pink; stroke: #000; stroke-miterlimit: 10;"/>
    <circle id="Shoot" cx="41.45" cy="99.45" r="17.49" style="fill: none; stroke: #f99fae; stroke-miterlimit: 10; stroke-width: 5px;"/>
    <rect x="203.61" y="179.57" width="21.82" height="29.44" rx="9.56" ry="9.56" transform="translate(115.84 -77.8) rotate(27.9)" style="fill: none; stroke: #000; stroke-miterlimit: 10;"/>
    <circle id="Grand_objectif" data-name="Grand objectif" cx="138.6" cy="163.41" r="80.44" style="fill: pink; stroke: #d87093; stroke-miterlimit: 10;"/>
    <ellipse id="Sous_obturateur" data-name="Sous obturateur" cx="139.37" cy="162.9" rx="30.89" ry="24.51" style="fill: #4c4647; stroke-width: 0px;"/>
    <rect x="123.79" y="143.49" width="29.62" height="39.83" rx="7.91" ry="7.91" style="stroke-width: 0px;"/>
    <circle id="Objectif" cx="138.6" cy="163.02" r="57.89" style="fill: none; stroke: #d87093; stroke-miterlimit: 10;"/>
    <circle cx="138.22" cy="32.81" r="4.47" style="stroke: #000; stroke-miterlimit: 10;"/>
    <circle cx="137.72" cy="50.06" r="3.97" style="stroke: #000; stroke-miterlimit: 10;"/>
    <rect x="29.79" y="33.9" width="26.08" height="33.83" rx="3.93" ry="3.93" style="fill: #f99fae; stroke-width: 0px;"/>
    <rect x="35.2" y="39.58" width="14.81" height="22.47" rx="3.93" ry="3.93" style="stroke: #000; stroke-miterlimit: 10;"/>
    <rect id="Rectangle_blanc" data-name="Rectangle blanc" x="86.34" y="150.13" width="19.74" height="26.55" rx="3.91" ry="3.91" style="fill: #fff; stroke-width: 0px;"/>
    <circle id="Shoot-2" data-name="Shoot" cx="41.45" cy="99.45" r="15.96" style="fill: none; stroke: #000; stroke-miterlimit: 10;"/>
    <rect x="127.2" y="23.49" width="21.11" height="35.74" rx="10.04" ry="10.04" style="fill: none; stroke: #f99fae; stroke-miterlimit: 10;"/>
    <rect x="76.3" y="7.92" width="33.7" height="66.89" rx="15.19" ry="15.19" style="fill: #fbf8f3; stroke-width: 0px;"/>
    <rect x="77.83" y="19.41" width="30.64" height="43.91" style="fill: none; stroke: #faebd7; stroke-miterlimit: 10;"/>
    <line x1="80.71" y1="19.41" x2="80.71" y2="63.32" style="fill: none; stroke: #faebd7; stroke-miterlimit: 10;"/>
    <line x1="83.71" y1="19.41" x2="83.71" y2="63.32" style="fill: none; stroke: #faebd7; stroke-miterlimit: 10;"/>
    <line x1="86.9" y1="19.41" x2="86.9" y2="63.32" style="fill: none; stroke: #faebd7; stroke-miterlimit: 10;"/>
    <line x1="90.22" y1="19.41" x2="90.22" y2="63.32" style="fill: none; stroke: #faebd7; stroke-miterlimit: 10;"/>
    <line x1="93.15" y1="19.41" x2="93.15" y2="63.32" style="fill: none; stroke: #faebd7; stroke-miterlimit: 10;"/>
    <line x1="96.34" y1="19.41" x2="96.34" y2="63.32" style="fill: none; stroke: #faebd7; stroke-miterlimit: 10;"/>
    <line x1="99.66" y1="19.53" x2="99.66" y2="63.45" style="fill: none; stroke: #faebd7; stroke-miterlimit: 10;"/>
    <line x1="102.34" y1="19.53" x2="102.34" y2="63.45" style="fill: none; stroke: #faebd7; stroke-miterlimit: 10;"/>
    <line x1="105.66" y1="19.53" x2="105.66" y2="63.45" style="fill: none; stroke: #faebd7; stroke-miterlimit: 10;"/>
  </g>
</svg>