<?xml version="1.0" encoding="UTF-8"?>
<svg id="Calque_2" data-name="Calque 2" xmlns="http://www.w3.org/2000/svg" viewBox="0 0 813.23 229.86">
  <g id="Calque_1-2" data-name="Calque 1">
    <path d="m.53,26.22l6.89-7.66S64.87,29.29,133.04.94c39.06,9.96,42.13,12.64,42.13,12.64l13.79-5.74,33.7,9.96s51.32,0,63.57-7.66c23.74,5.36,29.87,3.45,29.87,3.45h29.11L381.21.94s91.15-3.06,121.02,6.89c29.87-5.36,45.96,9.19,45.96,9.19,0,0,24.51,1.53,26.81,9.19,9.19-4.6,48.26,6.89,48.26,6.89l6.89,3.06,21.45-8.43,6.13,8.43s15.32-10.72,47.49,0c29.87,10.72,35.23,0,35.23,0,0,0,50.55-16.51,57.45,4.77s18.38,67.4,13.79,75.74-28.34,41.28-28.34,41.28v3.83l-11.49,6.89s-4.6,25.28,7.66,33.7c-.77,4.6-3.06,11.49-3.06,11.49h-34.47l-9.96-3.83-4.6,9.19s-72.77,6.89-90.38,0c-17.62,10.72-39.83,11.49-41.36,3.06-6.89,3.06-27.57,3.83-39.06-4.6-16.85-1.53-29.87,5.31-31.4,10.32s-24.51-5.72-24.51-5.72l-20.68.77s-22.21,7.66-29.11-1.53-9.19-5.36-9.19-5.36l-24.53,3.06s7.67,5.36-5.35,5.36h-13.02s-30.64-7.66-50.55,1.53c-21.45-7.66-38.3-7.66-38.3-7.66l-13.02,6.13-29.87-7.66s-13.79,4.6-32.17,2.3c-16.09,6.13-37.53,0-37.53,0l-13.02,5.36-9.96-7.66-22.98,2.3s0,4.6-18.38,2.3l-18.38-2.3-7.66,2.3-18.38-13.79-18.38,9.96-29.11.77s-16.85,7.66-19.91-2.3-4.6-42.13-4.6-42.13c0,0,3.06-.77-1.53-40.6l-4.6-39.83L.53,26.22Z" style="fill: #fff; stroke: gray; stroke-miterlimit: 10;"/>
  </g>
</svg>