<?xml version="1.0" encoding="UTF-8"?>
<svg id="Calque_2" data-name="Calque 2" xmlns="http://www.w3.org/2000/svg" xmlns:xlink="http://www.w3.org/1999/xlink" viewBox="0 0 313 313">
  <defs>
    <clipPath id="clippath">
      <rect x="17.35" y="14.54" width="278.81" height="241.79" style="fill: #fffafe; stroke: #000; stroke-miterlimit: 10;"/>
    </clipPath>
  </defs>
  <g id="Calque_1-2" data-name="Calque 1">
    <g id="Photo_polaroid" data-name="Photo polaroid">
      <rect x=".5" y=".5" width="312" height="312" style="fill: snow; stroke: #000; stroke-miterlimit: 10;"/>
      <g>
        <rect x="17.35" y="14.54" width="278.81" height="241.79" style="fill: #fffafe;"/>
        <g style="clip-path: url(#clippath);">
          <path d="m95.62,98.54c0-7.64,2.45-15.38,7.36-23.22,4.9-7.84,12.06-14.34,21.48-19.48,9.41-5.15,20.39-7.72,32.94-7.72,11.66,0,21.96,2.15,30.89,6.45,8.93,4.3,15.82,10.15,20.69,17.55,4.86,7.4,7.3,15.44,7.3,24.13,0,6.84-1.39,12.83-4.16,17.98-2.77,5.15-6.08,9.59-9.89,13.33-3.82,3.74-10.68,10.04-20.57,18.88-2.73,2.49-4.93,4.69-6.58,6.58-1.65,1.89-2.88,3.62-3.68,5.19-.81,1.57-1.43,3.14-1.87,4.7-.44,1.57-1.11,4.32-1.99,8.27-1.53,8.36-6.31,12.55-14.36,12.55-4.18,0-7.7-1.37-10.56-4.1-2.86-2.73-4.28-6.8-4.28-12.19,0-6.76,1.04-12.61,3.14-17.55,2.09-4.95,4.86-9.29,8.32-13.03,3.46-3.74,8.12-8.18,13.99-13.33,5.15-4.5,8.87-7.9,11.16-10.19,2.29-2.29,4.22-4.85,5.79-7.66,1.57-2.81,2.35-5.87,2.35-9.17,0-6.43-2.39-11.86-7.18-16.29-4.79-4.42-10.96-6.64-18.52-6.64-8.85,0-15.36,2.23-19.55,6.7-4.18,4.46-7.72,11.04-10.62,19.73-2.73,9.09-7.92,13.63-15.56,13.63-4.51,0-8.31-1.59-11.4-4.77-3.1-3.17-4.64-6.61-4.64-10.32h0Zm58.87,132.22c-4.91,0-9.19-1.59-12.85-4.77-3.66-3.18-5.49-7.62-5.49-13.33,0-5.07,1.77-9.33,5.31-12.79,3.54-3.46,7.88-5.19,13.03-5.19s9.33,1.73,12.79,5.19c3.46,3.46,5.19,7.72,5.19,12.79,0,5.63-1.81,10.05-5.43,13.27-3.62,3.22-7.8,4.83-12.55,4.83Z" style="fill: #fdb6b8; stroke-width: 0px;"/>
        </g>
        <rect x="17.35" y="14.54" width="278.81" height="241.79" style="fill: none; stroke: #000; stroke-miterlimit: 10;"/>
      </g>
    </g>
  </g>
</svg>