<?xml version="1.0" encoding="UTF-8"?>
<svg id="Calque_2" data-name="Calque 2" xmlns="http://www.w3.org/2000/svg" viewBox="0 0 120.13 191.32">
  <g id="Calque_1-2" data-name="Calque 1">
    <g id="Pince">
      <path d="m52.53,116.09l9.53-35.4s.68-4.43-4.77-10.55-25.53-25.53,22.13-33.7c13.96,1.02,41.53,23.49,21.11,35.4-7.49,5.11-10.89,6.47-10.89,9.87s-1.36,38.47-1.36,38.47" style="fill: none; stroke: #666363; stroke-miterlimit: 10; stroke-width: 4px;"/>
      <g id="Punaise">
        <line x1="77.21" y1="63.7" x2="77.21" y2="87.53" style="fill: none; stroke: #afa5a5; stroke-miterlimit: 10; stroke-width: 4px;"/>
        <ellipse cx="77.21" cy="55.83" rx="22.47" ry="17.02" style="fill: #a80c69; stroke-width: 0px;"/>
        <path d="m67.34,52.43v-27.57h20.09v27.91s-3.4,6.21-10.21,6.11-9.87-3.73-9.87-6.45Z" style="fill: #c10c6f; stroke-width: 0px;"/>
        <ellipse cx="77.38" cy="15.49" rx="20.6" ry="15.49" style="fill: #e00b76; stroke-width: 0px;"/>
      </g>
      <path d="m8.01,109.75l111.2,13.69c.58.07.99.61.91,1.19l-8.01,53.75s4.77,1.02-.68,12.94c-8.51-.68-22.81-2.38-22.81-2.38l-7.15-10.55-7.15,8.51-32.68-5.11-4.77-8.85-8.17,6.81L.1,177.02s-1.02-11.23,3.4-13.62c-.31-4.96,2.77-45.47,3.32-52.69.05-.6.58-1.04,1.18-.96Z" style="fill: #ad0080; stroke-width: 0px;"/>
      <g>
        <line x1="9.46" y1="114.55" x2="115.17" y2="128.85" style="fill: none; stroke: #f9a5f1; stroke-miterlimit: 10; stroke-width: 2px;"/>
        <g>
          <line x1="2.43" y1="169.23" x2="30.62" y2="173.19" style="fill: none; stroke: #f9a5f1; stroke-miterlimit: 10; stroke-width: 2px;"/>
          <line x1="40.23" y1="174.54" x2="77.71" y2="179.8" style="fill: none; stroke: #f9a5f1; stroke-miterlimit: 10; stroke-width: 2px;"/>
          <line x1="85.54" y1="180.9" x2="110.06" y2="184.34" style="fill: none; stroke: #f9a5f1; stroke-miterlimit: 10; stroke-width: 2px;"/>
        </g>
      </g>
      <path d="m36.87,172.94l15.49-88.79s.36-4.46-5.51-10.19c-5.87-5.72-27.29-23.64,19.66-35.2,13.99.02,43.11,20.46,23.59,33.8-7.1,5.63-10.4,7.23-10.16,10.63s1.53,95.19,1.53,95.19" style="fill: none; stroke: #666363; stroke-miterlimit: 10; stroke-width: 4px;"/>
    </g>
  </g>
</svg>